<svg xmlns="http://www.w3.org/2000/svg" width="296" height="204"  fill="#ffffff" xmlns:v="https://vecta.io/nano"><path d="M217.07.003h9.19c6.378 0 8.706 1.727 10.583 7.714l45.043 143.549 13.864 43.664c1.005 3.185-1.109 6.677-4.66 6.817-7.021.277-14.041.24-21.032-.044-3.255-.133-4.996-2.584-5.956-5.655l-14.185-45.185c-.842-2.824-2.018-3.754-4.974-3.754h-56.291c-2.934-.022-4.175.875-5.036 3.72l-13.672 43.742c-1.899 6.061-3.577 7.382-9.833 7.411H145.94c-7.135-.033-9.275-2.842-7.165-9.596l18.442-58.642 39.755-125.99C198.89 1.679 201.195.003 207.51.003h9.559zm.37 47.318h-1.109l-22.625 72.45h46.366l-22.632-72.45zM30.513 102.985l-.134 53.876c-.28 10.555 7.79 20.729 19.686 20.032 10.495-.612 21.054-.089 31.582-.14 10.342-.052 17.911-7.726 18.092-18.295l.069-11.845c.149-4.543 2.087-6.638 6.425-6.749a349.9 349.9 0 0 1 17.301 0c3.746.1 6.171 2.176 6.142 5.856-.051 7.486.309 15.153-1.107 22.422-3.971 20.412-20.169 34.087-42.526 35.33a362.69 362.69 0 0 1-45.082-.369C20.552 201.697 4.264 185.688.986 165.247a70.45 70.45 0 0 1-.918-10.982L.021 49.183c0-26.044 19.472-46.434 45.125-46.946 13.409-.269 26.841-.369 40.243.026 24.485.738 45.575 20.257 44.577 46.393-.134 3.559.047 7.132-.044 10.695-.102 4.219-1.717 6.398-5.728 6.59-6.251.302-12.531.229-18.789 0-3.507-.129-5.445-2.423-5.547-6.011-.12-4.2-.036-8.405-.131-12.609-.225-10.403-7.986-18.281-18.227-18.354a2075.47 2075.47 0 0 0-32.725 0c-10.676.081-18.201 7.715-18.248 18.609l-.015 55.41z"/></svg>
